<svg width="750px" height="504px" viewBox="0 0 750 504" version="1.1" xmlns="http://www.w3.org/2000/svg" xmlns:xlink="http://www.w3.org/1999/xlink">
    <defs>
        <rect id="path-1" x="0" y="0" width="750" height="504"></rect>
        <linearGradient x1="21.4186003%" y1="36.8606231%" x2="81.0916291%" y2="61.3177299%" id="linearGradient-3">
            <stop stop-color="#4cd841" offset="0%"></stop>
            <stop stop-color="#0fae4a" offset="100%"></stop>
        </linearGradient>
        <path d="M17.5676967,204.815386 L332.042775,204.815386 C334.804199,204.815386 337.042775,202.57681 337.042775,199.815386 L337.042775,17.5864204 C337.042775,14.8249966 334.804199,12.5864204 332.042775,12.5864204 L17.5676967,12.5864204 C14.806273,12.5864204 12.5676967,14.8249966 12.5676967,17.5864204 L12.5676967,199.815386 C12.5676967,202.57681 14.806273,204.815386 17.5676967,204.815386 Z" id="path-4"></path>
        <filter x="-28.5%" y="-40.3%" width="163.2%" height="206.6%" filterUnits="objectBoundingBox" id="filter-5">
            <feMorphology radius="5" operator="dilate" in="SourceAlpha" result="shadowSpreadOuter1"></feMorphology>
            <feOffset dx="10" dy="25" in="shadowSpreadOuter1" result="shadowOffsetOuter1"></feOffset>
            <feGaussianBlur stdDeviation="25" in="shadowOffsetOuter1" result="shadowBlurOuter1"></feGaussianBlur>
            <feColorMatrix values="0 0 0 0 0.451333841   0 0 0 0 0.528070367   0 0 0 0 1  0 0 0 0.147071678 0" type="matrix" in="shadowBlurOuter1"></feColorMatrix>
        </filter>
        <polygon id="path-6" points="2.44545399e-11 186.409144 189.195568 186.409144 189.195568 -3.97391059e-13 2.44545399e-11 -3.97391059e-13"></polygon>
        <linearGradient x1="21.4186003%" y1="30.6756407%" x2="81.0916291%" y2="66.6452245%" id="linearGradient-8">
            <stop stop-color="#4cd841" offset="0%"></stop>
            <stop stop-color="#0fae4a" offset="100%"></stop>
        </linearGradient>
        <path d="M24.1513178,116.710444 C19.6468659,116.710444 15.9952503,120.355039 15.9952503,124.851913 C15.9952503,129.348303 19.6468659,132.993382 24.1513178,132.993382 L27.3709331,132.993382 L81.1991339,194.486356 L81.1991339,229.988227 L108.458834,218.266605 L108.458834,194.486356 L162.28655,132.993382 L165.506165,132.993382 C170.010617,132.993382 173.662718,129.348303 173.662718,124.851913 C173.662718,120.355039 170.010617,116.710444 165.506165,116.710444 L24.1513178,116.710444 Z" id="path-9"></path>
        <filter x="-58.7%" y="-68.4%" width="230.0%" height="285.5%" filterUnits="objectBoundingBox" id="filter-10">
            <feMorphology radius="5" operator="dilate" in="SourceAlpha" result="shadowSpreadOuter1"></feMorphology>
            <feOffset dx="10" dy="25" in="shadowSpreadOuter1" result="shadowOffsetOuter1"></feOffset>
            <feGaussianBlur stdDeviation="25" in="shadowOffsetOuter1" result="shadowBlurOuter1"></feGaussianBlur>
            <feColorMatrix values="0 0 0 0 0.451333841   0 0 0 0 0.528070367   0 0 0 0 1  0 0 0 0.147071678 0" type="matrix" in="shadowBlurOuter1"></feColorMatrix>
        </filter>
        <linearGradient x1="21.4186003%" y1="38.8285378%" x2="81.0916291%" y2="59.6226474%" id="linearGradient-11">
            <stop stop-color="#4cd841" offset="0%"></stop>
            <stop stop-color="#0fae4a" offset="100%"></stop>
        </linearGradient>
        <polygon id="path-12" points="149.669843 332.96803 237.643719 332.96803 237.643719 284.910789 149.669843 284.910789"></polygon>
        <filter x="-105.1%" y="-161.3%" width="333.0%" height="526.6%" filterUnits="objectBoundingBox" id="filter-13">
            <feMorphology radius="5" operator="dilate" in="SourceAlpha" result="shadowSpreadOuter1"></feMorphology>
            <feOffset dx="10" dy="25" in="shadowSpreadOuter1" result="shadowOffsetOuter1"></feOffset>
            <feGaussianBlur stdDeviation="25" in="shadowOffsetOuter1" result="shadowBlurOuter1"></feGaussianBlur>
            <feColorMatrix values="0 0 0 0 0.451333841   0 0 0 0 0.528070367   0 0 0 0 1  0 0 0 0.147071678 0" type="matrix" in="shadowBlurOuter1"></feColorMatrix>
        </filter>
        <rect id="path-14" x="0" y="0.272263248" width="66.6220448" height="44.6245814" rx="2.86738351"></rect>
        <linearGradient x1="23.307671%" y1="16.0884369%" x2="73.8228342%" y2="82.2466316%" id="linearGradient-16">
            <stop stop-color="#44e229" offset="0%"></stop>
            <stop stop-color="#292EE2" offset="100%"></stop>
        </linearGradient>
        <path d="M161.379813,48.8581821 C132.389218,48.8581821 110.1795,41.0205171 91.3987927,23.7396763 C72.6200387,41.0205171 50.4112973,48.8581821 21.4231431,48.8581821 C21.4231431,93.8609974 11.5823749,158.327224 91.3983044,184.50837 C171.220093,158.327686 161.379813,93.8614594 161.379813,48.8581821 Z" id="path-17"></path>
        <filter x="-65.7%" y="-50.9%" width="245.6%" height="230.5%" filterUnits="objectBoundingBox" id="filter-18">
            <feMorphology radius="5" operator="dilate" in="SourceAlpha" result="shadowSpreadOuter1"></feMorphology>
            <feOffset dx="10" dy="25" in="shadowSpreadOuter1" result="shadowOffsetOuter1"></feOffset>
            <feGaussianBlur stdDeviation="25" in="shadowOffsetOuter1" result="shadowBlurOuter1"></feGaussianBlur>
            <feColorMatrix values="0 0 0 0 0.451333841   0 0 0 0 0.528070367   0 0 0 0 1  0 0 0 0.147071678 0" type="matrix" in="shadowBlurOuter1"></feColorMatrix>
        </filter>
        <linearGradient x1="5.00324764%" y1="50%" x2="100%" y2="50%" id="linearGradient-19">
            <stop stop-color="#0063C6" stop-opacity="0.320776879" offset="0%"></stop>
            <stop stop-color="#001B4E" stop-opacity="0.61205201" offset="100%"></stop>
        </linearGradient>
        <polygon id="path-20" points="0 0.51148328 43.8497144 0.51148328 43.8497144 59.2464348 0 59.2464348"></polygon>
        <path d="M78.220429,31.5279248 L4.65626091,31.5279248 C2.10680933,31.5279248 0.0401073037,29.4581438 0.0401073037,26.9048939 L0.0401073037,4.68474556 C0.0401073037,2.13165487 2.10680933,0.0617146773 4.65626091,0.0617146773 L78.220429,0.0617146773 C80.7694038,0.0617146773 82.8365826,2.13165487 82.8365826,4.68474556 L82.8365826,26.9048939 C82.8365826,29.4581438 80.7694038,31.5279248 78.220429,31.5279248" id="path-22"></path>
        <filter x="-43.5%" y="-85.8%" width="187.0%" height="328.8%" filterUnits="objectBoundingBox" id="filter-23">
            <feOffset dx="0" dy="9" in="SourceAlpha" result="shadowOffsetOuter1"></feOffset>
            <feGaussianBlur stdDeviation="10.5" in="shadowOffsetOuter1" result="shadowBlurOuter1"></feGaussianBlur>
            <feColorMatrix values="0 0 0 0 0.12549   0 0 0 0 0.167388964   0 0 0 0 0.631373  0 0 0 0.157561189 0" type="matrix" in="shadowBlurOuter1"></feColorMatrix>
        </filter>
        <path d="M106.016173,132.882379 L8.16070808,132.882379 C3.65372134,132.882379 4.76711216e-05,129.223262 4.76711216e-05,124.70956 L4.76711216e-05,8.17767217 C4.76711216e-05,3.66397079 3.65372134,0.00501292505 8.16070808,0.00501292505 L106.016173,0.00501292505 C110.522842,0.00501292505 114.176515,3.66397079 114.176515,8.17767217 L114.176515,124.70956 C114.176515,129.223262 110.522842,132.882379 106.016173,132.882379" id="path-24"></path>
        <filter x="-31.5%" y="-20.3%" width="163.1%" height="154.2%" filterUnits="objectBoundingBox" id="filter-25">
            <feOffset dx="0" dy="9" in="SourceAlpha" result="shadowOffsetOuter1"></feOffset>
            <feGaussianBlur stdDeviation="10.5" in="shadowOffsetOuter1" result="shadowBlurOuter1"></feGaussianBlur>
            <feColorMatrix values="0 0 0 0 0.12549   0 0 0 0 0.167388964   0 0 0 0 0.631373  0 0 0 0.157561189 0" type="matrix" in="shadowBlurOuter1"></feColorMatrix>
        </filter>
        <path d="M40.9677674,71.8576548 C37.9891168,71.9477283 34.9736006,72.4996275 32.0144952,73.5598214 L32.0144952,73.5598214 C23.0529599,76.7717536 16.6262571,83.924959 13.9862304,92.3751592 L13.9862304,92.3751592 C12.1566127,98.2316879 12.1448539,104.711411 14.366487,110.935554 L14.366487,110.935554 C14.5870454,111.554451 14.8273079,112.163323 15.084573,112.75819 L15.084573,112.75819 C16.2531511,115.45403 17.7867311,117.892698 19.6077679,120.036002 L19.6077679,120.036002 C27.2430926,129.030622 39.9128055,132.832011 51.6662794,128.620517 L51.6662794,128.620517 C66.8395207,123.182369 74.7402146,106.448747 69.3136519,91.244307 L69.3136519,91.244307 C65.0483578,79.2939711 53.8183128,71.8446053 41.8379243,71.8446053 L41.8379243,71.8446053 C41.5480839,71.8446053 41.2584023,71.8489021 40.9677674,71.8576548 M25.1714645,115.295048 C23.8069581,113.687729 22.6563362,111.859364 21.7814122,109.837803 L21.7814122,109.837803 C21.5881852,109.391414 21.4076706,108.935317 21.2417751,108.470945 L21.2417751,108.470945 C19.576305,103.804628 19.5855214,98.946547 20.9573374,94.5563386 L20.9573374,94.5563386 C22.9364835,88.2200013 27.7538092,82.8568081 34.4735305,80.4496492 L34.4735305,80.4496492 C36.69135,79.6547425 38.9523913,79.2409773 41.1856244,79.1728652 L41.1856244,79.1728652 C50.4088741,78.894051 59.1627222,84.5304885 62.4383639,93.7074833 L62.4383639,93.7074833 C66.5067763,105.107352 60.5830038,117.652555 49.2064496,121.730053 L49.2064496,121.730053 C46.7728388,122.602142 44.2852008,123.016226 41.8407846,123.016226 L41.8407846,123.016226 C35.4344214,123.016703 29.3153562,120.175568 25.1714645,115.295048" id="path-26"></path>
        <path d="M40.9677674,71.8576548 C37.9891168,71.9477283 34.9736006,72.4996275 32.0144952,73.5598214 L32.0144952,73.5598214 C23.0529599,76.7717536 16.6262571,83.924959 13.9862304,92.3751592 L13.9862304,92.3751592 C12.1566127,98.2316879 12.1448539,104.711411 14.366487,110.935554 L14.366487,110.935554 C14.5870454,111.554451 14.8273079,112.163323 15.084573,112.75819 L15.084573,112.75819 C16.2531511,115.45403 17.7867311,117.892698 19.6077679,120.036002 L19.6077679,120.036002 C27.2430926,129.030622 39.9128055,132.832011 51.6662794,128.620517 L51.6662794,128.620517 C66.8395207,123.182369 74.7402146,106.448747 69.3136519,91.244307 L69.3136519,91.244307 C65.0483578,79.2939711 53.8183128,71.8446053 41.8379243,71.8446053 L41.8379243,71.8446053 C41.5480839,71.8446053 41.2584023,71.8489021 40.9677674,71.8576548 M25.1714645,115.295048 C23.8069581,113.687729 22.6563362,111.859364 21.7814122,109.837803 L21.7814122,109.837803 C21.5881852,109.391414 21.4076706,108.935317 21.2417751,108.470945 L21.2417751,108.470945 C19.576305,103.804628 19.5855214,98.946547 20.9573374,94.5563386 L20.9573374,94.5563386 C22.9364835,88.2200013 27.7538092,82.8568081 34.4735305,80.4496492 L34.4735305,80.4496492 C36.69135,79.6547425 38.9523913,79.2409773 41.1856244,79.1728652 L41.1856244,79.1728652 C50.4088741,78.894051 59.1627222,84.5304885 62.4383639,93.7074833 L62.4383639,93.7074833 C66.5067763,105.107352 60.5830038,117.652555 49.2064496,121.730053 L49.2064496,121.730053 C46.7728388,122.602142 44.2852008,123.016226 41.8407846,123.016226 L41.8407846,123.016226 C35.4344214,123.016703 29.3153562,120.175568 25.1714645,115.295048" id="path-28"></path>
        <filter x="-61.7%" y="-46.2%" width="223.3%" height="223.1%" filterUnits="objectBoundingBox" id="filter-29">
            <feOffset dx="0" dy="9" in="SourceAlpha" result="shadowOffsetOuter1"></feOffset>
            <feGaussianBlur stdDeviation="10.5" in="shadowOffsetOuter1" result="shadowBlurOuter1"></feGaussianBlur>
            <feColorMatrix values="0 0 0 0 0.12549   0 0 0 0 0.167388964   0 0 0 0 0.631373  0 0 0 0.157561189 0" type="matrix" in="shadowBlurOuter1"></feColorMatrix>
        </filter>
        <path d="M80.6619214,111.741441 C79.8167124,112.640585 79.0960839,113.686138 78.5399208,114.8633 L78.5399208,114.8633 C76.8563357,118.42932 77.0646585,122.405127 78.7590491,125.650797 L78.7590491,125.650797 C79.9336655,127.900088 81.8214419,129.798475 84.2882636,130.967839 L84.2882636,130.967839 C84.5332931,131.08433 84.7815008,131.191909 85.030344,131.290576 L85.030344,131.290576 C86.1590373,131.736647 87.3193524,132.000661 88.4776017,132.093758 L88.4776017,132.093758 C93.3368781,132.486835 98.1519792,129.885525 100.360582,125.208704 L100.360582,125.208704 C103.211315,119.170915 100.63771,111.960896 94.6122395,109.103688 L94.6122395,109.103688 C92.9450215,108.313396 91.1880228,107.939098 89.4585145,107.939098 L89.4585145,107.939098 C86.1558592,107.939098 82.9529955,109.303409 80.6619214,111.741441 M88.7210423,129.076454 C87.8531101,129.006274 86.9826354,128.808621 86.1363141,128.47363 L86.1363141,128.47363 C85.9497611,128.399789 85.7636848,128.319264 85.5798332,128.232214 L85.5798332,128.232214 C83.7303526,127.355191 82.3151559,125.93168 81.4346702,124.245427 L81.4346702,124.245427 C80.1640759,121.812169 80.0078736,118.831309 81.2703638,116.157908 L81.2703638,116.157908 C81.6870094,115.275156 82.2277588,114.491707 82.8609902,113.817111 L82.8609902,113.817111 C85.4773403,111.032152 89.6832044,110.115344 93.3201932,111.839472 L93.3201932,111.839472 C97.8376676,113.981344 99.7669179,119.387027 97.6298215,123.913937 L97.6298215,123.913937 C96.0840059,127.188253 92.833471,129.105577 89.4440543,129.105577 L89.4440543,129.105577 C89.2033151,129.105577 88.962576,129.09587 88.7210423,129.076454" id="path-30"></path>
        <path d="M80.6619214,111.741441 C79.8167124,112.640585 79.0960839,113.686138 78.5399208,114.8633 L78.5399208,114.8633 C76.8563357,118.42932 77.0646585,122.405127 78.7590491,125.650797 L78.7590491,125.650797 C79.9336655,127.900088 81.8214419,129.798475 84.2882636,130.967839 L84.2882636,130.967839 C84.5332931,131.08433 84.7815008,131.191909 85.030344,131.290576 L85.030344,131.290576 C86.1590373,131.736647 87.3193524,132.000661 88.4776017,132.093758 L88.4776017,132.093758 C93.3368781,132.486835 98.1519792,129.885525 100.360582,125.208704 L100.360582,125.208704 C103.211315,119.170915 100.63771,111.960896 94.6122395,109.103688 L94.6122395,109.103688 C92.9450215,108.313396 91.1880228,107.939098 89.4585145,107.939098 L89.4585145,107.939098 C86.1558592,107.939098 82.9529955,109.303409 80.6619214,111.741441 M88.7210423,129.076454 C87.8531101,129.006274 86.9826354,128.808621 86.1363141,128.47363 L86.1363141,128.47363 C85.9497611,128.399789 85.7636848,128.319264 85.5798332,128.232214 L85.5798332,128.232214 C83.7303526,127.355191 82.3151559,125.93168 81.4346702,124.245427 L81.4346702,124.245427 C80.1640759,121.812169 80.0078736,118.831309 81.2703638,116.157908 L81.2703638,116.157908 C81.6870094,115.275156 82.2277588,114.491707 82.8609902,113.817111 L82.8609902,113.817111 C85.4773403,111.032152 89.6832044,110.115344 93.3201932,111.839472 L93.3201932,111.839472 C97.8376676,113.981344 99.7669179,119.387027 97.6298215,123.913937 L97.6298215,123.913937 C96.0840059,127.188253 92.833471,129.105577 89.4440543,129.105577 L89.4440543,129.105577 C89.2033151,129.105577 88.962576,129.09587 88.7210423,129.076454" id="path-32"></path>
        <filter x="-196.7%" y="-150.9%" width="493.5%" height="492.7%" filterUnits="objectBoundingBox" id="filter-33">
            <feOffset dx="0" dy="11" in="SourceAlpha" result="shadowOffsetOuter1"></feOffset>
            <feGaussianBlur stdDeviation="14" in="shadowOffsetOuter1" result="shadowBlurOuter1"></feGaussianBlur>
            <feColorMatrix values="0 0 0 0 0.12549   0 0 0 0 0.167388964   0 0 0 0 0.631373  0 0 0 0.569110577 0" type="matrix" in="shadowBlurOuter1"></feColorMatrix>
        </filter>
        <path d="M80.6619214,67.8234437 C79.8167124,68.7225874 79.0960839,69.7681403 78.5399208,70.9453025 L78.5399208,70.9453025 C76.8563357,74.5113223 77.0646585,78.4871288 78.7590491,81.7327989 L78.7590491,81.7327989 C79.9336655,83.9820904 81.8214419,85.8804772 84.2882636,87.0498414 L84.2882636,87.0498414 C84.5332931,87.1663322 84.7815008,87.2739112 85.030344,87.3725783 L85.030344,87.3725783 C86.1590373,87.818649 87.3193524,88.0826631 88.4776017,88.1757603 L88.4776017,88.1757603 C93.3368781,88.5688373 98.1519792,85.967527 100.360582,81.2907066 L100.360582,81.2907066 C103.211315,75.2529169 100.63771,68.0428984 94.6122395,65.1856903 L94.6122395,65.1856903 C92.9450215,64.3953987 91.1880228,64.0211003 89.4585145,64.0211003 L89.4585145,64.0211003 C86.1558592,64.0211003 82.9529955,65.3854116 80.6619214,67.8234437 M88.7210423,85.1584568 C87.8531101,85.0882759 86.9826354,84.8906234 86.1363141,84.5556327 L86.1363141,84.5556327 C85.9497611,84.4817915 85.7636848,84.4012664 85.5798332,84.3142166 L85.5798332,84.3142166 C83.7303526,83.4371934 82.3151559,82.0136818 81.4346702,80.3274293 L81.4346702,80.3274293 C80.1640759,77.8941714 80.0078736,74.9133111 81.2703638,72.2399102 L81.2703638,72.2399102 C81.6870094,71.357158 82.2277588,70.5737094 82.8609902,69.899113 L82.8609902,69.899113 C85.4773403,67.1141546 89.6832044,66.1973463 93.3201932,67.9214742 L93.3201932,67.9214742 C97.8376676,70.0633459 99.7669179,75.4690297 97.6298215,79.9959397 L97.6298215,79.9959397 C96.0840059,83.270255 92.833471,85.1875795 89.4440543,85.1875795 L89.4440543,85.1875795 C89.2033151,85.1875795 88.962576,85.177872 88.7210423,85.1584568" id="path-34"></path>
        <path d="M80.6619214,67.8234437 C79.8167124,68.7225874 79.0960839,69.7681403 78.5399208,70.9453025 L78.5399208,70.9453025 C76.8563357,74.5113223 77.0646585,78.4871288 78.7590491,81.7327989 L78.7590491,81.7327989 C79.9336655,83.9820904 81.8214419,85.8804772 84.2882636,87.0498414 L84.2882636,87.0498414 C84.5332931,87.1663322 84.7815008,87.2739112 85.030344,87.3725783 L85.030344,87.3725783 C86.1590373,87.818649 87.3193524,88.0826631 88.4776017,88.1757603 L88.4776017,88.1757603 C93.3368781,88.5688373 98.1519792,85.967527 100.360582,81.2907066 L100.360582,81.2907066 C103.211315,75.2529169 100.63771,68.0428984 94.6122395,65.1856903 L94.6122395,65.1856903 C92.9450215,64.3953987 91.1880228,64.0211003 89.4585145,64.0211003 L89.4585145,64.0211003 C86.1558592,64.0211003 82.9529955,65.3854116 80.6619214,67.8234437 M88.7210423,85.1584568 C87.8531101,85.0882759 86.9826354,84.8906234 86.1363141,84.5556327 L86.1363141,84.5556327 C85.9497611,84.4817915 85.7636848,84.4012664 85.5798332,84.3142166 L85.5798332,84.3142166 C83.7303526,83.4371934 82.3151559,82.0136818 81.4346702,80.3274293 L81.4346702,80.3274293 C80.1640759,77.8941714 80.0078736,74.9133111 81.2703638,72.2399102 L81.2703638,72.2399102 C81.6870094,71.357158 82.2277588,70.5737094 82.8609902,69.899113 L82.8609902,69.899113 C85.4773403,67.1141546 89.6832044,66.1973463 93.3201932,67.9214742 L93.3201932,67.9214742 C97.8376676,70.0633459 99.7669179,75.4690297 97.6298215,79.9959397 L97.6298215,79.9959397 C96.0840059,83.270255 92.833471,85.1875795 89.4440543,85.1875795 L89.4440543,85.1875795 C89.2033151,85.1875795 88.962576,85.177872 88.7210423,85.1584568" id="path-36"></path>
        <filter x="-196.7%" y="-150.9%" width="493.5%" height="492.7%" filterUnits="objectBoundingBox" id="filter-37">
            <feOffset dx="0" dy="11" in="SourceAlpha" result="shadowOffsetOuter1"></feOffset>
            <feGaussianBlur stdDeviation="14" in="shadowOffsetOuter1" result="shadowBlurOuter1"></feGaussianBlur>
            <feColorMatrix values="0 0 0 0 0.12549   0 0 0 0 0.167388964   0 0 0 0 0.631373  0 0 0 0.569110577 0" type="matrix" in="shadowBlurOuter1"></feColorMatrix>
        </filter>
        <polygon id="path-38" points="85.7418196 140.065152 63.2043435 140.065152 63.2043435 139.616217 85.2941878 139.616217 85.2941878 131.084059 85.7418196 131.084059"></polygon>
        <filter x="-159.7%" y="-300.6%" width="419.5%" height="901.7%" filterUnits="objectBoundingBox" id="filter-39">
            <feOffset dx="0" dy="9" in="SourceAlpha" result="shadowOffsetOuter1"></feOffset>
            <feGaussianBlur stdDeviation="10.5" in="shadowOffsetOuter1" result="shadowBlurOuter1"></feGaussianBlur>
            <feColorMatrix values="0 0 0 0 0.12549   0 0 0 0 0.167388964   0 0 0 0 0.631373  0 0 0 0.157561189 0" type="matrix" in="shadowBlurOuter1"></feColorMatrix>
        </filter>
        <polygon id="path-40" points="63.204121 137.637576 75.0673974 137.637576 75.0673974 134.9446 63.204121 134.9446"></polygon>
        <filter x="-303.5%" y="-1002.6%" width="706.9%" height="2773.6%" filterUnits="objectBoundingBox" id="filter-41">
            <feOffset dx="0" dy="9" in="SourceAlpha" result="shadowOffsetOuter1"></feOffset>
            <feGaussianBlur stdDeviation="10.5" in="shadowOffsetOuter1" result="shadowBlurOuter1"></feGaussianBlur>
            <feColorMatrix values="0 0 0 0 0.12549   0 0 0 0 0.167388964   0 0 0 0 0.631373  0 0 0 0.157561189 0" type="matrix" in="shadowBlurOuter1"></feColorMatrix>
        </filter>
        <linearGradient x1="27.4843047%" y1="12.5631065%" x2="74.4931899%" y2="82.2466316%" id="linearGradient-42">
            <stop stop-color="#4cd841" offset="0%"></stop>
            <stop stop-color="#0fae4a" offset="100%"></stop>
        </linearGradient>
        <path d="M180.79274,5.2595769 C179.209737,4.34931456 177.25742,4.34931456 175.672839,5.2595769 L144.232168,23.3094514 C142.649165,24.2181443 141.672217,25.8989908 141.672217,27.7195155 L141.672217,63.8192644 C141.672217,65.6382197 142.649165,67.3190662 144.232168,68.2277591 L175.672839,86.279203 C177.25742,87.187896 179.209737,87.187896 180.79274,86.279203 L212.233411,68.2277591 C213.817992,67.3190662 214.793362,65.6382197 214.793362,63.8192644 L214.793362,27.7195155 C214.793362,25.8989908 213.817992,24.2181443 212.233411,23.3094514 L180.79274,5.2595769 Z" id="path-43"></path>
        <filter x="-126.5%" y="-93.7%" width="380.4%" height="348.4%" filterUnits="objectBoundingBox" id="filter-44">
            <feMorphology radius="5" operator="dilate" in="SourceAlpha" result="shadowSpreadOuter1"></feMorphology>
            <feOffset dx="10" dy="25" in="shadowSpreadOuter1" result="shadowOffsetOuter1"></feOffset>
            <feGaussianBlur stdDeviation="25" in="shadowOffsetOuter1" result="shadowBlurOuter1"></feGaussianBlur>
            <feColorMatrix values="0 0 0 0 0.451333841   0 0 0 0 0.528070367   0 0 0 0 1  0 0 0 0.147071678 0" type="matrix" in="shadowBlurOuter1"></feColorMatrix>
        </filter>
        <path d="M39.1205225,71.624339 C37.5375199,70.7140766 35.5852028,70.7140766 34.0006219,71.624339 L2.55995028,89.6742135 C0.976947732,90.5829064 0,92.2637529 0,94.0842776 L0,130.184027 C0,132.002982 0.976947732,133.683828 2.55995028,134.592521 L34.0006219,152.643965 C35.5852028,153.552658 37.5375199,153.552658 39.1205225,152.643965 L70.5611942,134.592521 C72.145775,133.683828 73.1211444,132.002982 73.1211444,130.184027 L73.1211444,94.0842776 C73.1211444,92.2637529 72.145775,90.5829064 70.5611942,89.6742135 L39.1205225,71.624339 Z" id="path-45"></path>
        <filter x="-126.5%" y="-93.7%" width="380.4%" height="348.4%" filterUnits="objectBoundingBox" id="filter-46">
            <feMorphology radius="5" operator="dilate" in="SourceAlpha" result="shadowSpreadOuter1"></feMorphology>
            <feOffset dx="10" dy="25" in="shadowSpreadOuter1" result="shadowOffsetOuter1"></feOffset>
            <feGaussianBlur stdDeviation="25" in="shadowOffsetOuter1" result="shadowBlurOuter1"></feGaussianBlur>
            <feColorMatrix values="0 0 0 0 0.451333841   0 0 0 0 0.528070367   0 0 0 0 1  0 0 0 0.147071678 0" type="matrix" in="shadowBlurOuter1"></feColorMatrix>
        </filter>
        <linearGradient x1="27.2876208%" y1="12.5631065%" x2="74.707148%" y2="82.2466316%" id="linearGradient-47">
            <stop stop-color="#4cd841" offset="0%"></stop>
            <stop stop-color="#0fae4a" offset="100%"></stop>
        </linearGradient>
        <path d="M77.2461141,1.34218135 C74.1203686,-0.447393785 70.2653864,-0.447393785 67.1365246,1.34218135 L5.05479473,36.8282222 C1.92904928,38.6147118 0,41.9192549 0,45.4984051 L0,116.470487 C0,120.046552 1.92904928,123.351095 5.05479473,125.137584 L67.1365246,160.626711 C70.2653864,162.4132 74.1203686,162.4132 77.2461141,160.626711 L139.327844,125.137584 C142.456706,123.351095 144.382639,120.046552 144.382639,116.470487 L144.382639,45.4984051 C144.382639,41.9192549 142.456706,38.6147118 139.327844,36.8282222 L77.2461141,1.34218135 Z" id="path-48"></path>
        <filter x="-64.1%" y="-47.2%" width="242.0%" height="225.9%" filterUnits="objectBoundingBox" id="filter-49">
            <feMorphology radius="5" operator="dilate" in="SourceAlpha" result="shadowSpreadOuter1"></feMorphology>
            <feOffset dx="10" dy="25" in="shadowSpreadOuter1" result="shadowOffsetOuter1"></feOffset>
            <feGaussianBlur stdDeviation="25" in="shadowOffsetOuter1" result="shadowBlurOuter1"></feGaussianBlur>
            <feColorMatrix values="0 0 0 0 0.451333841   0 0 0 0 0.528070367   0 0 0 0 1  0 0 0 0.147071678 0" type="matrix" in="shadowBlurOuter1"></feColorMatrix>
        </filter>
        <ellipse id="path-50" cx="53.067791" cy="52.8773239" rx="53.067791" ry="52.8773239"></ellipse>
        <filter x="-12.2%" y="-10.4%" width="124.5%" height="130.3%" filterUnits="objectBoundingBox" id="filter-51">
            <feMorphology radius="0.5" operator="dilate" in="SourceAlpha" result="shadowSpreadOuter1"></feMorphology>
            <feOffset dx="0" dy="2" in="shadowSpreadOuter1" result="shadowOffsetOuter1"></feOffset>
            <feGaussianBlur stdDeviation="3.5" in="shadowOffsetOuter1" result="shadowBlurOuter1"></feGaussianBlur>
            <feComposite in="shadowBlurOuter1" in2="SourceAlpha" operator="out" result="shadowBlurOuter1"></feComposite>
            <feColorMatrix values="0 0 0 0 0.392816304   0 0 0 0 0.32897247   0 0 0 0 0.721156024  0 0 0 0.410347465 0" type="matrix" in="shadowBlurOuter1" result="shadowMatrixOuter1"></feColorMatrix>
            <feMorphology radius="7" operator="erode" in="SourceAlpha" result="shadowSpreadOuter2"></feMorphology>
            <feOffset dx="0" dy="14" in="shadowSpreadOuter2" result="shadowOffsetOuter2"></feOffset>
            <feGaussianBlur stdDeviation="0.5" in="shadowOffsetOuter2" result="shadowBlurOuter2"></feGaussianBlur>
            <feComposite in="shadowBlurOuter2" in2="SourceAlpha" operator="out" result="shadowBlurOuter2"></feComposite>
            <feColorMatrix values="0 0 0 0 0.028193   0 0 0 0 0.172271   0 0 0 0 0.31635  0 0 0 0.706703 0" type="matrix" in="shadowBlurOuter2" result="shadowMatrixOuter2"></feColorMatrix>
            <feMerge>
                <feMergeNode in="shadowMatrixOuter1"></feMergeNode>
                <feMergeNode in="shadowMatrixOuter2"></feMergeNode>
            </feMerge>
        </filter>
        <path d="M43.1271793,118.996682 C39.9113008,118.996682 37.3042883,115.971901 37.3042883,112.240684 L37.3042883,-29.85705 C37.3042883,-33.5882671 39.9113008,-36.6129169 43.1271793,-36.6129169 L112.950168,-36.6129169 C116.16582,-36.6129169 118.772832,-33.5882671 118.772832,-29.85705 L118.772832,112.240684 C118.772832,115.971901 116.16582,118.996682 112.950168,118.996682 L43.1271793,118.996682 Z" id="path-52"></path>
        <filter x="-44.2%" y="-17.4%" width="188.4%" height="146.3%" filterUnits="objectBoundingBox" id="filter-53">
            <feOffset dx="0" dy="9" in="SourceAlpha" result="shadowOffsetOuter1"></feOffset>
            <feGaussianBlur stdDeviation="10.5" in="shadowOffsetOuter1" result="shadowBlurOuter1"></feGaussianBlur>
            <feColorMatrix values="0 0 0 0 0.12549   0 0 0 0 0.167388964   0 0 0 0 0.631373  0 0 0 0.157561189 0" type="matrix" in="shadowBlurOuter1"></feColorMatrix>
        </filter>
        <rect id="path-54" x="0" y="0" width="78.8337338" height="78.9511825" rx="3.00840237"></rect>
        <filter x="-79.3%" y="-61.4%" width="258.6%" height="258.3%" filterUnits="objectBoundingBox" id="filter-55">
            <feOffset dx="0" dy="14" in="SourceAlpha" result="shadowOffsetOuter1"></feOffset>
            <feGaussianBlur stdDeviation="18.5" in="shadowOffsetOuter1" result="shadowBlurOuter1"></feGaussianBlur>
            <feColorMatrix values="0 0 0 0 0.125490196   0 0 0 0 0.364705882   0 0 0 0 0.631372549  0 0 0 0.128769668 0" type="matrix" in="shadowBlurOuter1" result="shadowMatrixOuter1"></feColorMatrix>
            <feMorphology radius="8.5" operator="erode" in="SourceAlpha" result="shadowSpreadOuter2"></feMorphology>
            <feOffset dx="0" dy="17" in="shadowSpreadOuter2" result="shadowOffsetOuter2"></feOffset>
            <feGaussianBlur stdDeviation="16.5" in="shadowOffsetOuter2" result="shadowBlurOuter2"></feGaussianBlur>
            <feColorMatrix values="0 0 0 0 0.00392156863   0 0 0 0 0.760784314   0 0 0 0 0.8  0 0 0 1 0" type="matrix" in="shadowBlurOuter2" result="shadowMatrixOuter2"></feColorMatrix>
            <feMerge>
                <feMergeNode in="shadowMatrixOuter1"></feMergeNode>
                <feMergeNode in="shadowMatrixOuter2"></feMergeNode>
            </feMerge>
        </filter>
    </defs>
    <g id="Page-1" stroke="none" stroke-width="1" fill="none" fill-rule="evenodd">
        <g id="Threat-Intelligence-Automation--1.0" transform="translate(-620.000000, -139.000000)">
            <g id="Threat-Intelligence-Automation_Hero-image" transform="translate(620.000000, 139.000000)">
                <mask id="mask-2" fill="white">
                    <use xlink:href="#path-1"></use>
                </mask>
                <g id="Mask"></g>
                <g id="Group-13" mask="url(#mask-2)">
                    <g transform="translate(-4.000000, 40.500000)" id="Group-9-Copy">
                        <g transform="translate(0.000000, 0.500000)">
                            <g id="Group-2" transform="translate(237.643719, 117.854664)">
                                <path d="M349.610472,9.25114072 C349.610472,4.16301332 345.470348,0 340.410196,0 L9.20027557,0 C4.14012401,0 0,4.16301332 0,9.25114072 L0,217.401807 L349.610472,217.401807 L349.610472,9.25114072 Z" id="Fill-7-Copy" fill="#78A8FF"></path>
                                <path d="M0,216.257587 L0,234.565107 C0,239.599676 4.14012401,243.718868 9.20027557,243.718868 L340.410196,243.718868 C345.470348,243.718868 349.610472,239.599676 349.610472,234.565107 L349.610472,216.257587 L0,216.257587 Z" id="Fill-9-Copy" fill="#4F89F2"></path>
                                <g id="Fill-11-Copy">
                                    <use fill="black" fill-opacity="1" filter="url(#filter-5)" xlink:href="#path-4"></use>
                                    <use fill="url(#linearGradient-3)" fill-rule="evenodd" xlink:href="#path-4"></use>
                                </g>
                                <polygon id="Fill-14-Copy" fill="#3771DA" points="148.527325 268.891708 201.083147 268.891708 201.083147 243.718868 148.527325 243.718868"></polygon>
                                <path d="M180.517825,228.844007 C180.517825,232.003485 177.960013,234.565107 174.805236,234.565107 C171.650458,234.565107 169.092646,232.003485 169.092646,228.844007 C169.092646,225.68453 171.650458,223.122907 174.805236,223.122907 C177.960013,223.122907 180.517825,225.68453 180.517825,228.844007" id="Fill-15-Copy" fill="#FFFFFF"></path>
                                <path d="M118.826966,274.612809 L230.783506,274.612809 C232.679311,274.612809 234.216166,273.075954 234.216166,271.180149 C234.216166,269.284343 232.679311,267.747488 230.783506,267.747488 L118.826966,267.747488 C116.93116,267.747488 115.394306,269.284343 115.394306,271.180149 C115.394306,273.075954 116.93116,274.612809 118.826966,274.612809 Z" id="Fill-185-Copy" fill="#78A8FF"></path>
                            </g>
                            <g id="Group">
                                <g id="Group-52">
                                    <g id="Group-17" transform="translate(16.329297, 18.295396)" fill="#FFFFFF">
                                        <polygon id="Fill-5" points="146.472259 45.7985483 163.530506 45.7985483 163.530506 28.6388828 146.472259 28.6388828"></polygon>
                                        <polygon id="Fill-7" points="68.8333431 38.1602809 85.8915897 38.1602809 85.8915897 21.0006154 68.8333431 21.0006154"></polygon>
                                        <polygon id="Fill-8" points="69.307403 8.33561862 77.362594 8.33561862 77.362594 0.232535963 69.307403 0.232535963"></polygon>
                                        <polygon id="Fill-9" points="31.1838536 38.9900698 34.7285866 38.9900698 34.7285866 35.4242617 31.1838536 35.4242617"></polygon>
                                        <polygon id="Fill-10" points="70.4399928 65.206318 73.9847259 65.206318 73.9847259 61.6405099 70.4399928 61.6405099"></polygon>
                                        <polygon id="Fill-11" points="56.9137221 79.5637454 60.4584552 79.5637454 60.4584552 75.9979373 56.9137221 75.9979373"></polygon>
                                        <polygon id="Fill-12" points="102.429085 11.0457149 105.973818 11.0457149 105.973818 7.47990681 102.429085 7.47990681"></polygon>
                                        <polygon id="Fill-13" points="92.1709697 63.4232856 100.226161 63.4232856 100.226161 55.320203 92.1709697 55.320203"></polygon>
                                        <polygon id="Fill-14" points="113.504941 25.0520284 121.560132 25.0520284 121.560132 16.9489458 113.504941 16.9489458"></polygon>
                                        <polygon id="Fill-15" points="114.689835 84.10102 122.745026 84.10102 122.745026 75.9979373 114.689835 75.9979373"></polygon>
                                        <polygon id="Fill-16" points="0.0844530808 81.3103318 17.1426997 81.3103318 17.1426997 64.1506663 0.0844530808 64.1506663"></polygon>
                                    </g>
                                    <mask id="mask-7" fill="white">
                                        <use xlink:href="#path-6"></use>
                                    </mask>
                                    <g id="Clip-20"></g>
                                    <polygon id="Fill-18" fill="#BBBBF9" mask="url(#mask-7)" points="56.6180087 88.1301034 70.7413194 88.1301034 70.7413194 73.9228233 56.6180087 73.9228233"></polygon>
                                    <polygon id="Fill-21" fill="#CCA4FD" mask="url(#mask-7)" points="112.130728 106.481195 118.800225 106.481195 118.800225 99.7723012 112.130728 99.7723012"></polygon>
                                    <polygon id="Fill-22" fill="#BBBBF9" mask="url(#mask-7)" points="127.683873 93.7833452 130.618554 93.7833452 130.618554 90.8312165 127.683873 90.8312165"></polygon>
                                    <polygon id="Fill-23" fill="#B4DAFC" mask="url(#mask-7)" points="102.967696 76.5826138 105.902632 76.5826138 105.902632 73.6304851 102.967696 73.6304851"></polygon>
                                    <polygon id="Fill-24" fill="#662D91" mask="url(#mask-7)" points="105.902632 51.4276639 108.837313 51.4276639 108.837313 48.4755351 105.902632 48.4755351"></polygon>
                                    <polygon id="Fill-25" fill="#BBBBF9" mask="url(#mask-7)" points="75.0155128 114.321199 77.9501935 114.321199 77.9501935 111.368813 75.0155128 111.368813"></polygon>
                                    <polygon id="Fill-26" fill="#ADBCFC" mask="url(#mask-7)" points="84.2762651 71.3572279 90.9457622 71.3572279 90.9457622 64.6483343 84.2762651 64.6483343"></polygon>
                                    <polygon id="Fill-27" fill="#662D91" mask="url(#mask-7)" points="62.1105207 106.481195 68.7797626 106.481195 68.7797626 99.7723012 62.1105207 99.7723012"></polygon>
                                    <polygon id="Fill-28" fill="#CCA4FD" mask="url(#mask-7)" points="61.1297423 57.5919202 67.7989843 57.5919202 67.7989843 50.88277 61.1297423 50.88277"></polygon>
                                    <polygon id="Fill-29" fill="#CCA4FD" mask="url(#mask-7)" points="120.173417 75.1065495 134.296728 75.1065495 134.296728 60.8992694 120.173417 60.8992694"></polygon>
                                    <polygon id="Fill-30" fill="#CCA4FD" mask="url(#mask-7)" points="0 48.3492573 14.1233107 48.3492573 14.1233107 34.1419773 0 34.1419773"></polygon>
                                    <polygon id="Fill-32" fill="#CCA4FD" mask="url(#mask-7)" points="55.5129746 66.7006054 62.1822165 66.7006054 62.1822165 59.9917119 55.5129746 59.9917119"></polygon>
                                    <polygon id="Fill-33" fill="#ADBCFC" mask="url(#mask-7)" points="71.0661193 54.0027558 74.0008001 54.0027558 74.0008001 51.0506271 71.0661193 51.0506271"></polygon>
                                    <polygon id="Fill-34" fill="#005C99" mask="url(#mask-7)" points="46.3501981 36.8020244 49.2848788 36.8020244 49.2848788 33.8498957 46.3501981 33.8498957"></polygon>
                                    <polygon id="Fill-35" fill="#662D91" mask="url(#mask-7)" points="46.3501981 13.1231388 49.2848788 13.1231388 49.2848788 10.1710101 46.3501981 10.1710101"></polygon>
                                    <polygon id="Fill-36" fill="#BBBBF9" mask="url(#mask-7)" points="18.3975041 74.5403526 21.3321848 74.5403526 21.3321848 71.5882239 18.3975041 71.5882239"></polygon>
                                    <polygon id="Fill-37" fill="#CCA4FD" mask="url(#mask-7)" points="27.6585115 31.5766385 34.3277534 31.5766385 34.3277534 24.867745 27.6585115 24.867745"></polygon>
                                    <polygon id="Fill-38" fill="#662D91" mask="url(#mask-7)" points="5.49276714 66.7006054 12.1620091 66.7006054 12.1620091 59.9917119 5.49276714 59.9917119"></polygon>
                                    <polygon id="Fill-39" fill="#CCA4FD" mask="url(#mask-7)" points="4.51173362 17.8110741 11.1809755 17.8110741 11.1809755 11.1021806 4.51173362 11.1021806"></polygon>
                                    <polygon id="Fill-40" fill="#CCA4FD" mask="url(#mask-7)" points="63.5556635 35.3259601 77.6789741 35.3259601 77.6789741 21.11868 63.5556635 21.11868"></polygon>
                                    <polygon id="Fill-41" fill="#BBBBF9" mask="url(#mask-7)" points="111.517104 38.1785039 125.640414 38.1785039 125.640414 23.9712239 111.517104 23.9712239"></polygon>
                                    <polygon id="Fill-43" fill="#CCA4FD" mask="url(#mask-7)" points="167.029823 56.5295953 173.699065 56.5295953 173.699065 49.8204451 167.029823 49.8204451"></polygon>
                                    <polygon id="Fill-44" fill="#ADBCFC" mask="url(#mask-7)" points="182.582713 43.8317457 185.517649 43.8317457 185.517649 40.879617 182.582713 40.879617"></polygon>
                                    <polygon id="Fill-45" fill="#005C99" mask="url(#mask-7)" points="157.866792 26.631271 160.801472 26.631271 160.801472 23.6791423 157.866792 23.6791423"></polygon>
                                    <polygon id="Fill-46" fill="#662D91" mask="url(#mask-7)" points="157.866792 2.95212875 160.801472 2.95212875 160.801472 2.91791151e-14 157.866792 2.91791151e-14"></polygon>
                                    <polygon id="Fill-47" fill="#B4DAFC" mask="url(#mask-7)" points="146.073552 47.2587858 149.008488 47.2587858 149.008488 44.3066571 146.073552 44.3066571"></polygon>
                                    <polygon id="Fill-48" fill="#ADBCFC" mask="url(#mask-7)" points="139.175105 21.4058851 145.844602 21.4058851 145.844602 14.6969915 139.175105 14.6969915"></polygon>
                                    <polygon id="Fill-49" fill="#662D91" mask="url(#mask-7)" points="117.009106 56.5295953 123.678603 56.5295953 123.678603 49.8204451 117.009106 49.8204451"></polygon>
                                    <polygon id="Fill-50" fill="#CCA4FD" mask="url(#mask-7)" points="116.028582 7.64032069 122.698079 7.64032069 122.698079 0.931170501 116.028582 0.931170501"></polygon>
                                    <polygon id="Fill-51" fill="#785CA6" mask="url(#mask-7)" points="175.072257 25.15495 189.195568 25.15495 189.195568 10.9476699 175.072257 10.9476699"></polygon>
                                    <polygon id="Fill-20" fill="#CCA4FD" mask="url(#mask-7)" points="86.6302352 103.915856 100.753801 103.915856 100.753801 89.708576 86.6302352 89.708576"></polygon>
                                </g>
                                <g id="Fill-1">
                                    <use fill="black" fill-opacity="1" filter="url(#filter-10)" xlink:href="#path-9"></use>
                                    <use fill="url(#linearGradient-8)" fill-rule="evenodd" xlink:href="#path-9"></use>
                                </g>
                                <polygon id="Fill-3" fill-opacity="0.5" fill="#ADBCFC" opacity="0.5" points="27.4204292 132.729524 31.9870068 137.289163 144.351494 137.289163 101.253477 180.321696 96.3983057 185.169006 96.3983057 223.122907 108.448444 217.93998 108.448444 194.193362 162.237539 132.729524"></polygon>
                                <polygon id="Fill-42" fill="#662D91" points="158.809986 78.9511825 172.5202 78.9511825 172.5202 65.220542 158.809986 65.220542"></polygon>
                                <polygon id="Fill-31" fill="#662D91" points="29.7054649 64.076322 43.4156795 64.076322 43.4156795 50.3456816 29.7054649 50.3456816"></polygon>
                                <polygon id="Fill-20-Copy" fill="#CCA4FD" opacity="0.493652344" points="83.4038054 234.565107 87.9738769 234.565107 87.9738769 229.988227 83.4038054 229.988227"></polygon>
                                <polygon id="Fill-20-Copy-2" fill="#CCA4FD" opacity="0.493652344" points="90.2589127 234.565107 94.8289842 234.565107 94.8289842 229.988227 90.2589127 229.988227"></polygon>
                                <polygon id="Fill-20-Copy-3" fill="#CCA4FD" opacity="0.493652344" points="97.1140199 234.565107 101.684091 234.565107 101.684091 229.988227 97.1140199 229.988227"></polygon>
                                <polygon id="Fill-20-Copy-4" fill="#CCA4FD" opacity="0.493652344" points="103.969127 234.565107 108.539199 234.565107 108.539199 229.988227 103.969127 229.988227"></polygon>
                                <polygon id="Fill-20-Copy-5" fill="#662D90" opacity="0.493652344" points="103.969127 228.844007 108.539199 228.844007 108.539199 224.267127 103.969127 224.267127"></polygon>
                                <polygon id="Fill-20-Copy-8" fill="#BBBBF9" opacity="0.493652344" points="103.969127 221.978687 108.539199 221.978687 108.539199 218.546027 103.969127 220.170886"></polygon>
                                <polygon id="Fill-20-Copy-7" fill="#662D90" opacity="0.5" points="97.1140199 228.844007 101.684091 228.844007 101.684091 224.267127 97.1140199 224.267127"></polygon>
                                <polygon id="Fill-20-Copy-6" fill="#662D90" opacity="0.493652344" points="90.2589127 228.844007 94.8289842 228.844007 94.8289842 225.411347 90.2589127 226.985645 90.2589127 226.9924"></polygon>
                            </g>
                            <g id="Fill-36">
                                <use fill="black" fill-opacity="1" filter="url(#filter-13)" xlink:href="#path-12"></use>
                                <use fill="url(#linearGradient-11)" fill-rule="evenodd" xlink:href="#path-12"></use>
                            </g>
                            <path d="M81.1187696,321.52583 L81.1187696,239.141988 L109.681717,239.141988 L109.68077,296.352988 L149.669843,296.352989 L149.669843,321.52583 L81.1187696,321.52583 Z" id="Combined-Shape" fill="#2B43C5"></path>
                            <polygon id="Fill-42" fill="#FFFFFF" points="163.380057 334.11225 175.947754 334.11225 175.947754 283.766569 163.380057 283.766569"></polygon>
                            <polygon id="Fill-43" fill="#FFFFFF" points="189.657968 334.11225 202.225665 334.11225 202.225665 283.766569 189.657968 283.766569"></polygon>
                            <polygon id="Fill-44" fill="#FFFFFF" points="213.650844 334.11225 226.218541 334.11225 226.218541 283.766569 213.650844 283.766569"></polygon>
                            <g id="Group-25" transform="translate(305.052274, 89.249163)">
                                <g id="Path-18-+-Path-18-Copy-Mask-Copy">
                                    <mask id="mask-15" fill="white">
                                        <use xlink:href="#path-14"></use>
                                    </mask>
                                    <use id="Mask" fill="#FACD66" xlink:href="#path-14"></use>
                                    <line x1="-1.23374157" y1="39.5309567" x2="21.7961011" y2="16.4163626" id="Path-18" stroke="#D9A93A" stroke-width="0.573476703" mask="url(#mask-15)"></line>
                                    <line x1="44.9561597" y1="38.7054355" x2="68.3972496" y2="16.8291232" id="Path-18-Copy" stroke="#D9A93A" stroke-width="0.573476703" mask="url(#mask-15)" transform="translate(56.817220, 27.973660) scale(-1, 1) translate(-56.817220, -27.973660) "></line>
                                </g>
                                <path d="M2.28503576,0.653088981 L31.1069146,23.4956497 C33.1926945,25.1487188 36.1416905,25.1495475 38.2283993,23.4976511 L66.2660371,1.30228104 L66.2660371,1.30228104 C65.9805775,0.941225229 65.7091998,0.671308525 65.4519041,0.492530929 C65.1946084,0.313753333 64.8412408,0.149576357 64.3918015,0 L4.10949919,0 C3.73024885,0.0560479001 3.4282571,0.121623847 3.20352393,0.196727841 C2.97879075,0.271831835 2.67262803,0.423952215 2.28503576,0.653088981 Z" id="Path-17-Copy" fill="#D9A93A"></path>
                            </g>
                            <g id="Group-7" transform="translate(495.852761, 211.680707)">
                                <g id="Group-5">
                                    <g id="Group-4">
                                        <g id="security-on">
                                            <path d="M182.250559,32.7035516 C144.613645,32.7035516 115.779976,22.5748769 91.398006,0.242713341 C67.018571,22.5748769 38.1861699,32.7035516 0.552425743,32.7035516 C0.552425743,90.861036 -12.2233084,174.171237 91.3973721,208.005333 C195.025659,174.171834 182.250559,90.861633 182.250559,32.7035516 Z" id="Shape" fill="#FFFFFF" fill-rule="nonzero" opacity="0.211914062"></path>
                                            <path d="M171.20134,41.2059887 C138.141889,41.2059887 112.815018,32.2831086 91.3984225,12.609536 C69.9840539,32.2831086 44.6582962,41.2059887 11.601629,41.2059887 C11.601629,92.439963 0.379700369,165.832283 91.3978657,195.638511 C182.422712,165.832809 171.20134,92.440489 171.20134,41.2059887 Z" id="Shape" fill="#DCE9FF" fill-rule="nonzero"></path>
                                            <g id="Shape">
                                                <use fill="black" fill-opacity="1" filter="url(#filter-18)" xlink:href="#path-17"></use>
                                                <use fill="url(#linearGradient-16)" fill-rule="evenodd" xlink:href="#path-17"></use>
                                            </g>
                                            <path d="M149.102904,58.2108629 C125.198378,58.2108629 106.885102,51.699572 91.3992555,37.3431812 C75.9150197,51.699572 57.6025488,58.2108629 33.7000356,58.2108629 C33.7000356,95.5978171 25.585718,149.154375 91.3988529,170.904865 C157.216819,149.154759 149.102904,95.598201 149.102904,58.2108629 Z" id="Shape" stroke="#FFFFFF" opacity="0.1898484" fill-rule="nonzero"></path>
                                        </g>
                                        <path d="M91.4014305,12.609536 L91.4014305,195.638511 C37.9088309,178.603717 11.162531,140.270594 11.162531,80.6391401 C11.162531,21.0076865 11.162531,7.92385091 11.162531,41.3876334 C32.4039608,40.1672561 47.546213,37.9007934 56.5892876,34.5882453 C65.6323622,31.2756971 77.2364099,23.9494606 91.4014305,12.609536 Z" id="Path-4" fill="url(#linearGradient-19)" opacity="0.206984747" style="mix-blend-mode: multiply;"></path>
                                    </g>
                                </g>
                                <g id="Group-29" style="mix-blend-mode: screen;" transform="translate(58.268412, 68.653202)">
                                    <g id="Group-8" transform="translate(0.000000, 0.607935)">
                                        <g id="Group-3" transform="translate(0.000000, 0.975284)">
                                            <mask id="mask-21" fill="white">
                                                <use xlink:href="#path-20"></use>
                                            </mask>
                                            <g id="Clip-2"></g>
                                            <path d="M22.7876853,0.528743144 L21.9053695,0.528743144 C21.0230537,0.430635054 20.1039108,0.748743103 19.5330909,1.53509431 L0.765082886,27.004549 C-0.243058823,28.3736028 -0.256868983,30.2108997 0.734393641,31.5933319 L19.3581622,57.5904892 C20.0333256,58.5329215 21.0967079,59.1126511 22.2567614,59.2464348 L43.8497144,29.5226566 L22.7876853,0.528743144 Z" id="Fill-1" fill="#FFFFFF" opacity="0.556036086" mask="url(#mask-21)"></path>
                                        </g>
                                        <path d="M48.6577985,33.6702504 L29.2161616,60.4344346 L63.5374791,60.4344346 C65.0320453,60.4344346 66.0616695,59.047543 66.083152,57.6591649 L48.6577985,33.6702504 Z" id="Fill-4" fill="#FFFFFF" opacity="0.556036086"></path>
                                        <path d="M48.7177959,27.4753192 L65.0460089,4.98775582 C65.2209376,4.74843154 65.3176087,4.49275591 65.3835906,4.23410731 C65.7165689,2.91559405 64.7253063,1.50343215 63.1785683,1.50343215 L29.8515824,1.50343215 L48.6088491,27.3251841 L48.7177959,27.4753192 Z" id="Fill-6" fill="#FFFFFF" opacity="0.556036086"></path>
                                    </g>
                                </g>
                            </g>
                            <g id="Group-33" transform="translate(606.676995, 49.201462)">
                                <g id="Group-32">
                                    <g id="Group-31" transform="translate(2.542460, 0.000000)">
                                        <g id="Group-6">
                                            <g id="Fill-4">
                                                <use fill="black" fill-opacity="1" filter="url(#filter-23)" xlink:href="#path-22"></use>
                                                <use fill="#FFFFFF" fill-rule="evenodd" xlink:href="#path-22"></use>
                                            </g>
                                        </g>
                                        <path d="M55.1419809,16.251903 C55.1419809,21.5972725 59.4819598,25.9461044 64.8166761,25.9461044 L64.8166761,25.9461044 C70.1512336,25.9461044 74.4910536,21.5972725 74.4910536,16.251903 L74.4910536,16.251903 C74.4910536,10.9065335 70.1512336,6.55770167 64.8166761,6.55770167 L64.8166761,6.55770167 C59.4819598,6.55770167 55.1419809,10.9065335 55.1419809,16.251903" id="Path"></path>
                                        <path d="M55.4597884,16.251903 C55.4597884,11.0820655 59.6570717,6.87598263 64.8166761,6.87598263 L64.8166761,6.87598263 C69.9759627,6.87598263 74.173405,11.0820655 74.173405,16.251903 L74.173405,16.251903 C74.173405,21.4217406 69.9759627,25.6279826 64.8166761,25.6279826 L64.8166761,25.6279826 C59.6570717,25.6279826 55.4597884,21.4217406 55.4597884,16.251903" id="Path"></path>
                                        <ellipse id="Oval" fill="#DFD9FF" cx="66.0086131" cy="15.9220048" rx="11.4251788" ry="11.4422004"></ellipse>
                                        <rect id="Rectangle" fill="#DFD9FF" x="6.59768323" y="7.91246456" width="39.9881259" height="2.28844007" rx="1"></rect>
                                        <rect id="Rectangle-Copy-9" fill="#DFD9FF" x="6.59768323" y="14.7777848" width="39.9881259" height="2.28844007" rx="1"></rect>
                                        <rect id="Rectangle-Copy-10" fill="#DFD9FF" x="6.59768323" y="21.643105" width="39.9881259" height="2.28844007" rx="1"></rect>
                                    </g>
                                    <g id="Group-3" transform="translate(0.000000, 36.124888)">
                                        <g id="Fill-1">
                                            <use fill="black" fill-opacity="1" filter="url(#filter-25)" xlink:href="#path-24"></use>
                                            <use fill="#FFFFFF" fill-rule="evenodd" xlink:href="#path-24"></use>
                                        </g>
                                    </g>
                                    <mask id="mask-27" fill="white">
                                        <use xlink:href="#path-26"></use>
                                    </mask>
                                    <g id="Clip-9"></g>
                                    <g id="Fill-8">
                                        <use fill="black" fill-opacity="1" filter="url(#filter-29)" xlink:href="#path-28"></use>
                                        <use fill="#FFFFFF" fill-rule="evenodd" xlink:href="#path-28"></use>
                                    </g>
                                    <path d="M20.9573533,94.5564023 L13.9862463,92.3752229 C16.626273,83.9248635 23.0529758,76.7718173 32.014511,73.559885 C34.9736165,72.499532 37.9891327,71.9476328 40.9677833,71.8577185 L41.1856403,79.1727697 C38.9524072,79.2410409 36.6913659,79.654647 34.4735464,80.4495537 C27.7538251,82.8567126 22.9364994,88.220065 20.9573533,94.5564023" id="Fill-11" fill="#7F51FD"></path>
                                    <path d="M21.7813645,109.837771 L15.0845253,112.758158 C14.8272602,112.163291 14.5871566,111.554419 14.3665983,110.935522 C12.1448062,104.711379 12.1565651,98.2316561 13.9861827,92.3752865 L20.9572897,94.5564659 C19.5856327,98.9465151 19.5762573,103.804597 21.2417274,108.470914 C21.4076229,108.935286 21.5881376,109.391382 21.7813645,109.837771" id="Fill-13" fill="#CCA4FD"></path>
                                    <mask id="mask-31" fill="white">
                                        <use xlink:href="#path-30"></use>
                                    </mask>
                                    <g id="Clip-19"></g>
                                    <g id="Fill-18">
                                        <use fill="black" fill-opacity="1" filter="url(#filter-33)" xlink:href="#path-32"></use>
                                        <use fill="#FFFFFF" fill-rule="evenodd" xlink:href="#path-32"></use>
                                    </g>
                                    <mask id="mask-35" fill="white">
                                        <use xlink:href="#path-34"></use>
                                    </mask>
                                    <g id="Clip-19"></g>
                                    <g id="Fill-18">
                                        <use fill="black" fill-opacity="1" filter="url(#filter-37)" xlink:href="#path-36"></use>
                                        <use fill="#FFFFFF" fill-rule="evenodd" xlink:href="#path-36"></use>
                                    </g>
                                    <path d="M81.4346702,124.245427 L78.7590491,125.650797 C77.0646585,122.405286 76.8563357,118.42932 78.5399208,114.8633 C79.0960839,113.685979 79.8167124,112.640585 80.6620803,111.741441 L82.8609902,113.817111 C82.2277588,114.491707 81.6871683,115.275156 81.2703638,116.157908 C80.0077147,118.831309 80.1642348,121.812169 81.4346702,124.245427" id="Fill-21" fill="#CCA4FD"></path>
                                    <path d="M86.1364412,128.473694 L85.0303123,131.29048 C84.781469,131.191973 84.5332614,131.084394 84.2882318,130.967903 C81.8214102,129.798539 79.9336337,127.900152 78.7590173,125.65086 L81.4346385,124.245491 C82.3151241,125.931584 83.7303208,127.355255 85.5798014,128.232119 C85.763653,128.319169 85.9497293,128.399694 86.1364412,128.473694" id="Fill-23" fill="#CCA4FD"></path>
                                    <path d="M81.4346702,80.3274293 L78.7590491,81.7327989 C77.0646585,78.487288 76.8563357,74.5113223 78.5399208,70.9453025 C79.0960839,69.7679812 79.8167124,68.7225874 80.6620803,67.8234437 L82.8609902,69.899113 C82.2277588,70.5737094 81.6871683,71.357158 81.2703638,72.2399102 C80.0077147,74.9133111 80.1642348,77.8941714 81.4346702,80.3274293" id="Fill-21" fill="#CCA4FD"></path>
                                    <path d="M86.1364412,84.5556963 L85.0303123,87.3724828 C84.781469,87.2739748 84.5332614,87.1663959 84.2882318,87.0499051 C81.8214102,85.8805408 79.9336337,83.9821541 78.7590173,81.7328625 L81.4346385,80.327493 C82.3151241,82.0135864 83.7303208,83.4372571 85.5798014,84.3141211 C85.763653,84.4011709 85.9497293,84.481696 86.1364412,84.5556963" id="Fill-23" fill="#7F51FD"></path>
                                    <g id="Fill-35">
                                        <use fill="black" fill-opacity="1" filter="url(#filter-39)" xlink:href="#path-38"></use>
                                        <use fill="#ADBCFC" fill-rule="evenodd" xlink:href="#path-38"></use>
                                    </g>
                                    <polygon id="Fill-37" fill="#ADBCFC" points="43.2993143 140.065152 13.9861827 140.065152 13.9861827 139.616217 42.8516825 139.616217 42.8516825 125.650844 43.2993143 125.650844"></polygon>
                                    <polygon id="Fill-40" fill="#ADBCFC" points="13.9862304 137.637576 34.155723 137.637576 34.155723 134.9446 13.9862304 134.9446"></polygon>
                                    <g id="Fill-42">
                                        <use fill="black" fill-opacity="1" filter="url(#filter-41)" xlink:href="#path-40"></use>
                                        <use fill="#ADBCFC" fill-rule="evenodd" xlink:href="#path-40"></use>
                                    </g>
                                    <polygon id="Fill-53" fill="#ADBCFC" points="9.41679446 49.6031321 19.0705144 49.6031321 19.0705144 47.5360564 9.41679446 47.5360564"></polygon>
                                    <polygon id="Fill-55" fill="#ADBCFC" points="49.6599608 57.3862155 64.6367971 57.3862155 64.6367971 55.3188215 49.6599608 55.3188215"></polygon>
                                    <polygon id="Fill-57" fill="#ADBCFC" points="30.2937266 57.3862155 39.4370477 57.3862155 39.4370477 55.3188215 30.2937266 55.3188215"></polygon>
                                    <polygon id="Fill-59" fill="#ADBCFC" points="9.41679446 57.3862155 27.531344 57.3862155 27.531344 55.3188215 9.41679446 55.3188215"></polygon>
                                    <polygon id="Fill-61" fill="#ADBCFC" points="22.0089623 49.6031321 36.3123646 49.6031321 36.3123646 47.5360564 22.0089623 47.5360564"></polygon>
                                    <polygon id="Fill-63" fill="#ADBCFC" points="42.2993807 57.3862155 46.2276401 57.3862155 46.2276401 55.3188215 42.2993807 55.3188215"></polygon>
                                    <polygon id="Fill-65" fill="#ADBCFC" points="53.951633 49.7178724 64.6367971 49.7178724 64.6367971 47.6507967 53.951633 47.6507967"></polygon>
                                    <polygon id="Fill-67" fill="#ADBCFC" points="68.4479444 57.3862155 77.5593259 57.3862155 77.5593259 55.3188215 68.4479444 55.3188215"></polygon>
                                    <polygon id="Fill-69" fill="#ADBCFC" points="39.8292221 49.7178724 51.1561984 49.7178724 51.1561984 47.6507967 39.8292221 47.6507967"></polygon>
                                </g>
                            </g>
                            <g id="Group-10" style="mix-blend-mode: luminosity;" transform="translate(263.921631, 138.450624)" fill="#FFFCFC">
                                <ellipse id="Oval" cx="10.5417894" cy="2.29484951" rx="2.29143567" ry="2.29484951"></ellipse>
                                <ellipse id="Oval-Copy-11" cx="2.29143567" cy="2.29484951" rx="2.29143567" ry="2.29484951"></ellipse>
                                <ellipse id="Oval-Copy-12" cx="18.7921432" cy="2.29484951" rx="2.29143567" ry="2.29484951"></ellipse>
                            </g>
                            <g id="Group-54" transform="translate(305.052274, 146.460165)">
                                <g id="Stroke-3">
                                    <use fill="black" fill-opacity="1" filter="url(#filter-44)" xlink:href="#path-43"></use>
                                    <use fill="url(#linearGradient-42)" fill-rule="evenodd" xlink:href="#path-43"></use>
                                </g>
                                <g id="Stroke-3-Copy">
                                    <use fill="black" fill-opacity="1" filter="url(#filter-46)" xlink:href="#path-45"></use>
                                    <use fill="url(#linearGradient-42)" fill-rule="evenodd" xlink:href="#path-45"></use>
                                </g>
                                <g id="Group-99" transform="translate(35.418054, 0.000000)">
                                    <g id="Stroke-3">
                                        <use fill="black" fill-opacity="1" filter="url(#filter-49)" xlink:href="#path-48"></use>
                                        <use fill="url(#linearGradient-47)" fill-rule="evenodd" xlink:href="#path-48"></use>
                                    </g>
                                    <g id="Group-98" transform="translate(19.123528, 28.105965)">
                                        <g id="Oval">
                                            <use fill="black" fill-opacity="1" filter="url(#filter-51)" xlink:href="#path-50"></use>
                                            <ellipse stroke="#00B8D9" stroke-width="4.691928" stroke-linejoin="square" fill="#F9F8FF" fill-rule="evenodd" cx="53.067791" cy="52.8773239" rx="50.721827" ry="50.5313599"></ellipse>
                                        </g>
                                    </g>
                                    <line x1="141.036021" y1="128.620518" x2="141.036021" y2="128.620518" id="Line-5" stroke="#979797" stroke-width="0.691927512" stroke-linecap="square"></line>
                                </g>
                            </g>
                            <g id="Group-Copy" transform="translate(399.881259, 219.690247)" fill="#00369C" fill-rule="nonzero">
                                <path d="M24.242925,0 C25.1014604,0 25.8615258,0.556963715 26.1208488,1.37700033 L26.1208488,1.37700033 L27.1480701,4.62492807 C27.3419329,5.23736403 27.8239324,5.70887808 28.4334953,5.91003499 C29.2788828,6.18935734 30.0965755,6.53031551 30.8809787,6.92758641 C31.4547343,7.21839543 32.1300372,7.22736064 32.7007156,6.9306682 L32.7007156,6.9306682 L35.7230736,5.36035551 C36.4853769,4.96420526 37.4160864,5.10820896 38.0234114,5.71644247 L38.0234114,5.71644247 L39.9925318,7.68878883 C40.5998568,8.29674218 40.7436454,9.22884393 40.3480869,9.99228765 L40.3480869,9.99228765 L38.7753642,13.0281321 C38.4796744,13.5988238 38.4883465,14.2740162 38.7773224,14.8483501 C39.1706429,15.6302845 39.5085741,16.4447179 39.785521,17.2871675 C39.9860977,17.8982027 40.4569075,18.3817637 41.0692678,18.5759166 L41.0692678,18.5759166 L44.3257718,19.6088769 C45.1443038,19.8688681 45.7007153,20.6297903 45.7007153,21.4898902 L45.7007153,21.4898902 L45.7007153,24.2789112 C45.7007153,25.1390111 45.1443038,25.8999334 44.3257718,26.1599245 L44.3257718,26.1599245 L41.0552806,27.1973675 C40.4445987,27.39096 39.9743485,27.8728401 39.7726528,28.4819141 C39.4962654,29.3167993 39.1600127,30.1242286 38.7689301,30.8994392 C38.4788352,31.4740531 38.4696036,32.1503662 38.7658529,32.7218984 L38.7658529,32.7218984 L40.3480869,35.7765138 C40.7436454,36.5396773 40.5998568,37.4720593 39.9925318,38.0800126 L39.9925318,38.0800126 L38.0234114,40.052359 C37.4160864,40.6603123 36.4853769,40.8045962 35.7230736,40.4084459 L35.7230736,40.4084459 L32.6646286,38.8190822 C32.0947894,38.5232302 31.4206055,38.5319153 30.8471296,38.8207631 C30.0767137,39.209349 29.2746866,39.5435833 28.4452446,39.818423 C27.8365209,40.0198601 27.3548011,40.491094 27.1609383,41.1032498 L27.1609383,41.1032498 L26.1208488,44.3918011 C25.8615258,45.2118377 25.1014604,45.7688014 24.242925,45.7688014 L24.242925,45.7688014 L21.4577903,45.7688014 C20.5992549,45.7688014 19.8391895,45.2118377 19.5798665,44.3918011 L19.5798665,44.3918011 L18.539777,41.1032498 C18.3459141,40.491094 17.8641944,40.0198601 17.2554707,39.818423 C16.4263084,39.5435833 15.6240016,39.209349 14.8538654,38.8207631 C14.2801098,38.5316351 13.6062056,38.5229501 13.0360866,38.8190822 L13.0360866,38.8190822 L9.97764169,40.4084459 C9.21533833,40.8045962 8.28462889,40.6603123 7.67730391,40.052359 L7.67730391,40.052359 L5.70818344,38.0800126 C5.10085845,37.4720593 4.95706986,36.5396773 5.35262837,35.7765138 L5.35262837,35.7765138 L6.9348624,32.7218984 C7.23111167,32.1503662 7.22188011,31.4740531 6.93178522,30.8994392 C6.54070262,30.1242286 6.20444991,29.3167993 5.92778275,28.4819141 C5.72636682,27.8728401 5.25611657,27.39096 4.64543465,27.1973675 L4.64543465,27.1973675 L1.37494347,26.1599245 C0.55641151,25.8999334 0,25.1390111 0,24.2789112 L0,24.2789112 L0,21.4898902 C0,20.6297903 0.55641151,19.8688681 1.37494347,19.6088769 L1.37494347,19.6088769 L4.63172718,18.5759166 C5.24380782,18.3817637 5.71461756,17.8982027 5.91519425,17.2874477 C6.19214116,16.4452782 6.53007233,15.631125 6.92367263,14.8494707 C7.21292829,14.2751369 7.22132062,13.5999445 6.92563084,13.0289726 L6.92563084,13.0289726 L5.35262837,9.99256781 C4.95706986,9.22884393 5.10085845,8.29674218 5.70818344,7.68878883 L5.70818344,7.68878883 L7.67730391,5.71644247 C8.28462889,5.10820896 9.21533833,4.96420526 9.97764169,5.36035551 L9.97764169,5.36035551 L13.0008389,6.93122852 C13.5717971,7.22792096 14.2473797,7.21895575 14.8211353,6.92814673 C15.6052587,6.53059567 16.422392,6.18935734 17.2674997,5.91003499 C17.8767829,5.70887808 18.3587824,5.23736403 18.5523655,4.62520823 L18.5523655,4.62520823 L19.5798665,1.37700033 C19.8391895,0.556963715 20.5992549,0 21.4577903,0 L21.4577903,0 Z M22.8503576,11.636136 C16.6473904,11.636136 11.6188259,16.6721922 11.6188259,22.8844007 C11.6188259,29.0966093 16.6473904,34.1326655 22.8503576,34.1326655 C29.0533248,34.1326655 34.0818894,29.0966093 34.0818894,22.8844007 C34.0818894,16.6721922 29.0533248,11.636136 22.8503576,11.636136 Z" id="Combined-Shape"></path>
                            </g>
                            <g id="Group-Copy-2" transform="translate(379.315937, 189.940526)" fill="#00369C" fill-rule="nonzero">
                                <path d="M18.1821938,0 C18.8260953,0 19.3961444,0.417722786 19.5906366,1.03275025 L19.5906366,1.03275025 L20.3610525,3.46869605 C20.5064497,3.92802302 20.8679493,4.28165856 21.3251215,4.43252624 C21.9591621,4.642018 22.5724316,4.89773663 23.160734,5.1956898 C23.5910507,5.41379657 24.0975279,5.42052048 24.5255367,5.19800115 L24.5255367,5.19800115 L26.7923052,4.02026663 C27.3640327,3.72315395 28.0620648,3.83115672 28.5175585,4.28733185 L28.5175585,4.28733185 L29.9943989,5.76659162 C30.4498926,6.22255663 30.5577341,6.92163295 30.2610652,7.49421574 L30.2610652,7.49421574 L29.0815231,9.77109909 C28.8597558,10.1991179 28.8662599,10.7055122 29.0829918,11.1362625 C29.3779822,11.7227134 29.6314306,12.3335384 29.8391408,12.9653756 C29.9895733,13.423652 30.3426806,13.7863228 30.8019509,13.9319374 L30.8019509,13.9319374 L33.2443288,14.7066577 C33.8582278,14.901651 34.2755365,15.4723427 34.2755365,16.1174177 L34.2755365,16.1174177 L34.2755365,18.2091834 C34.2755365,18.8542583 33.8582278,19.42495 33.2443288,19.6199434 L33.2443288,19.6199434 L30.7914605,20.3980256 C30.333449,20.54322 29.9807613,20.90463 29.8294896,21.3614356 C29.622199,21.9875995 29.3700095,22.5931715 29.0766975,23.1745794 C28.8591264,23.6055399 28.8522027,24.1127747 29.0743896,24.5414238 L29.0743896,24.5414238 L30.2610652,26.8323853 C30.5577341,27.404758 30.4498926,28.1040444 29.9943989,28.5600095 L29.9943989,28.5600095 L28.5175585,30.0392692 C28.0620648,30.4952342 27.3640327,30.6034471 26.7923052,30.3063344 L26.7923052,30.3063344 L24.4984715,29.1143116 C24.071092,28.8924227 23.5654541,28.8989364 23.1353472,29.1155724 C22.5575352,29.4070117 21.956015,29.6576874 21.3339335,29.8638172 C20.8773907,30.0148951 20.5161009,30.3683205 20.3707037,30.8274373 L20.3707037,30.8274373 L19.5906366,33.2938508 C19.3961444,33.9088783 18.8260953,34.3266011 18.1821938,34.3266011 L18.1821938,34.3266011 L16.0933427,34.3266011 C15.4494411,34.3266011 14.8793921,33.9088783 14.6848998,33.2938508 L14.6848998,33.2938508 L13.9048327,30.8274373 C13.7594356,30.3683205 13.3981458,30.0148951 12.941603,29.8638172 C12.3197313,29.6576874 11.7180012,29.4070117 11.1403991,29.1155724 C10.7100823,28.8987263 10.2046542,28.8922125 9.77706499,29.1143116 L9.77706499,29.1143116 L7.48323126,30.3063344 C6.91150375,30.6034471 6.21347167,30.4952342 5.75797793,30.0392692 L5.75797793,30.0392692 L4.28113758,28.5600095 C3.82564384,28.1040444 3.71780239,27.404758 4.01447128,26.8323853 L4.01447128,26.8323853 L5.2011468,24.5414238 C5.42333375,24.1127747 5.41641008,23.6055399 5.19883891,23.1745794 C4.90552696,22.5931715 4.65333743,21.9875995 4.44583706,21.3614356 C4.29477511,20.90463 3.94208743,20.54322 3.48407599,20.3980256 L3.48407599,20.3980256 L1.03120761,19.6199434 C0.417308632,19.42495 0,18.8542583 0,18.2091834 L0,18.2091834 L0,16.1174177 C0,15.4723427 0.417308632,14.901651 1.03120761,14.7066577 L1.03120761,14.7066577 L3.47379539,13.9319374 C3.93285586,13.7863228 4.28596317,13.423652 4.43639569,12.9655858 C4.64410587,12.3339587 4.89755425,11.7233438 5.19275447,11.137103 C5.40969622,10.7063527 5.41599046,10.1999584 5.19422313,9.77172946 L5.19422313,9.77172946 L4.01447128,7.49442586 C3.71780239,6.92163295 3.82564384,6.22255663 4.28113758,5.76659162 L4.28113758,5.76659162 L5.75797793,4.28733185 C6.21347167,3.83115672 6.91150375,3.72315395 7.48323126,4.02026663 L7.48323126,4.02026663 L9.75062915,5.19842139 C10.1788478,5.42094072 10.6855348,5.41421681 11.1158515,5.19611005 C11.7039441,4.89794675 12.316794,4.642018 12.9506248,4.43252624 C13.4075871,4.28165856 13.7690868,3.92802302 13.9142741,3.46890617 L13.9142741,3.46890617 L14.6848998,1.03275025 C14.8793921,0.417722786 15.4494411,0 16.0933427,0 L16.0933427,0 Z M17.1377682,8.72710197 C12.4855428,8.72710197 8.71411944,12.5041441 8.71411944,17.1633005 C8.71411944,21.822457 12.4855428,25.5994991 17.1377682,25.5994991 C21.7899936,25.5994991 25.561417,21.822457 25.561417,17.1633005 C25.561417,12.5041441 21.7899936,8.72710197 17.1377682,8.72710197 Z" id="Combined-Shape"></path>
                            </g>
                            <g id="Group-20" transform="translate(137.102146, 178.498326)">
                                <g id="Group-2">
                                    <g id="Fill-1" transform="translate(78.038560, 41.191883) rotate(-270.000000) translate(-78.038560, -41.191883) ">
                                        <use fill="black" fill-opacity="1" filter="url(#filter-53)" xlink:href="#path-52"></use>
                                        <use fill="#FFFFFF" fill-rule="evenodd" xlink:href="#path-52"></use>
                                    </g>
                                    <rect id="Rectangle-Copy-3" fill="#F9F8FF" x="114.741891" y="33.3219154" width="34.7833222" height="7.32300823" rx="0.204020462"></rect>
                                    <rect id="Rectangle" fill="#F9F8FF" x="114.741891" y="45.2218038" width="34.7833222" height="6.4076322" rx="0.204020462"></rect>
                                    <rect id="Rectangle-Copy-10" fill="#F9F8FF" x="114.741891" y="56.2063161" width="34.7833222" height="6.4076322" rx="0.204020462"></rect>
                                    <rect id="Rectangle-Copy-11" fill="#F9F8FF" x="114.741891" y="67.1908285" width="34.7833222" height="6.4076322" rx="0.204020462"></rect>
                                    <polygon id="Fill-29" fill="#7F51FD" transform="translate(88.654399, 42.017988) scale(-1, 1) translate(-88.654399, -42.017988) " points="68.9743615 44.3064278 108.334437 44.3064278 108.334437 39.7295476 68.9743615 39.7295476"></polygon>
                                    <polygon id="Fill-35" fill="#CCA4FD" transform="translate(65.731650, 40.587315) scale(-1, 1) translate(-65.731650, -40.587315) " points="63.9859175 46.9373393 41.513844 46.9373393 41.513844 46.0744253 63.6288056 46.0744253 75.4596638 34.2372914 89.9494565 34.2372914 89.9494565 35.100049 75.8170887 35.100049"></polygon>
                                    <polygon id="Fill-16" fill="#BBBBF9" transform="translate(10.526532, 51.416859) rotate(-90.000000) translate(-10.526532, -51.416859) " points="-12.815557 54.6205859 33.8686204 54.6205859 33.8686204 48.2131319 -12.815557 48.2131319"></polygon>
                                    <polygon id="Fill-17" fill="#BBBBF9" transform="translate(36.156348, 53.247611) rotate(-90.000000) translate(-36.156348, -53.247611) " points="14.6450114 56.451338 57.6676847 56.451338 57.6676847 50.0438839 14.6450114 50.0438839"></polygon>
                                    <polygon id="Fill-18" fill="#BBBBF9" transform="translate(23.341440, 55.993739) rotate(-90.000000) translate(-23.341440, -55.993739) " points="4.57623129 59.1974661 42.1066485 59.1974661 42.1066485 52.790012 4.57623129 52.790012"></polygon>
                                    <g id="Group" transform="translate(6.730522, 6.776011)">
                                        <ellipse id="Oval" fill="#FF947F" cx="3.18542005" cy="3.1855086" rx="3.18542005" ry="3.1855086"></ellipse>
                                        <ellipse id="Oval-Copy-11" fill="#FFE373" cx="14.6529322" cy="3.1855086" rx="3.18542005" ry="3.1855086"></ellipse>
                                        <ellipse id="Oval-Copy-12" fill="#00B8D9" cx="26.1204444" cy="3.1855086" rx="3.18542005" ry="3.1855086"></ellipse>
                                    </g>
                                    <g id="Group-45-Copy-3" transform="translate(6.730522, 17.760523)">
                                        <g id="Group-35" transform="translate(0.000000, 0.000000)">
                                            <line x1="129.088868" y1="1.17927025" x2="129.088868" y2="5.11017108" id="Line-3-Copy-3" stroke="#EBECF0" stroke-width="0.552520164" stroke-linecap="square"></line>
                                            <line x1="105.281095" y1="1.17927025" x2="105.281095" y2="5.11017108" id="Line-3-Copy-4" stroke="#EBECF0" stroke-width="0.552520164" stroke-linecap="square"></line>
                                            <line x1="76.2043882" y1="1.17927025" x2="76.2043882" y2="5.11017108" id="Line-3-Copy-5" stroke="#EBECF0" stroke-width="0.552520164" stroke-linecap="square"></line>
                                            <line x1="50.2500127" y1="1.17927025" x2="50.2500127" y2="5.11017108" id="Line-3-Copy-6" stroke="#EBECF0" stroke-width="0.552520164" stroke-linecap="square"></line>
                                            <line x1="26.0519483" y1="1.17927025" x2="26.0519483" y2="5.11017108" id="Line-3-Copy-7" stroke="#EBECF0" stroke-width="0.552520164" stroke-linecap="square"></line>
                                            <g id="Group-38" transform="translate(28.100978, 0.589635)" fill="#E6FCFF">
                                                <rect id="Rectangle" x="0" y="0" width="20.1000051" height="5.11017108" rx="0.501001864"></rect>
                                            </g>
                                            <g id="Group-38-Copy" transform="translate(0.000000, 0.589635)" fill="#F4F5F7">
                                                <rect id="Rectangle" x="0" y="0" width="24.0029187" height="5.11017108" rx="0.501001864"></rect>
                                            </g>
                                            <g id="Group-46" transform="translate(52.103897, 0.589635)" fill="#FFF0B3">
                                                <rect id="Rectangle" x="0" y="0" width="22.0514619" height="5.11017108" rx="0.501001864"></rect>
                                            </g>
                                            <g id="Group-46-Copy" transform="translate(78.058272, 0.589635)" fill="#FFEBE6">
                                                <rect id="Rectangle" x="0" y="0" width="25.1737928" height="5.11017108" rx="0.501001864"></rect>
                                            </g>
                                            <g id="Group-34-Copy-2" transform="translate(108.110707, 0.000000)" fill="#DFD9FF">
                                                <rect id="Rectangle" x="0" y="0" width="17.9534026" height="6.28944133" rx="0.501001864"></rect>
                                            </g>
                                        </g>
                                        <g id="More-actions" transform="translate(132.516863, 0.000000)" fill="#091E42" fill-opacity="0.0399999991">
                                            <g id="Buttons-/-_part-/-Background-/-Default">
                                                <rect id="bg" x="0" y="0" width="9.475277" height="6.32022016" rx="0.501001864"></rect>
                                            </g>
                                        </g>
                                    </g>
                                    <path d="M110.165138,62.7381893 L110.165138,72.7877238 C110.165138,73.2345299 109.785709,73.5984607 109.316119,73.5984607 L49.6856679,73.5984607 C49.2160776,73.5984607 48.8366487,73.2345299 48.8366487,72.7877238 L48.8366487,50.71406 C54.3440034,50.71406 57.0864106,52.6886548 58.6942876,55.2830129 C58.7994759,55.4487636 58.8971506,55.6181175 58.987312,55.7910747 C61.7071788,60.7275617 60.8882134,67.4945125 66.868915,67.4945125 C67.0905616,67.4945125 67.3009381,67.4692896 67.5000444,67.4188437 C67.6277729,67.3936208 67.7517447,67.3539848 67.8682031,67.3035389 C71.8916525,65.6784618 71.2642799,54.1443779 78.4208356,54.2272533 C79.9498216,54.2452696 81.0918651,54.8073806 81.9934784,55.7045961 C82.079883,55.794678 82.1662876,55.8847599 82.2485598,55.9820483 C85.4534195,59.5889267 85.4985002,67.6278337 90.4194305,69.0871601 C92.192979,69.6132383 93.7595322,68.8997898 95.3073017,67.7215188 C95.4049765,67.6458501 95.5060323,67.5701813 95.6040828,67.487306 C98.8761878,64.882138 102.129509,60.4284899 107.178544,61.5202822 C107.32468,61.5527117 107.471568,61.5887445 107.621461,61.6283805 C108.422019,61.8517836 109.267281,62.2121111 110.165138,62.7381893" id="Fill-3" fill="#E3DDFF" opacity="0.155366443"></path>
                                    <path d="M110.165138,62.5933696 C109.094538,62.6082013 108.275622,62.9641611 107.618236,63.5388879 C106.401133,64.6030594 105.747503,66.4199377 105.1089,68.1960289 C104.150994,70.8546037 103.163037,73.5984607 100.274294,73.5984607 C100.120278,73.5984607 99.9587489,73.5910448 99.7938389,73.5762132 C97.9114608,73.3941546 96.5253152,71.8816961 95.3044553,69.808601 C94.5456439,68.5260333 93.8506929,67.0243278 93.1444724,65.4855432 C91.1460186,61.1584066 89.0761915,56.6829535 85.2671085,56.5791319 C85.2224063,56.5791319 85.1807092,56.575424 85.1393878,56.575424 C83.9865204,56.575424 83.0432653,57.00925 82.2468889,57.7285854 C80.6357295,59.1783801 79.6098315,61.79246 78.6068482,64.3509212 C77.1230338,68.1367022 75.590385,72.0522602 72.1306559,72.1301264 C69.6438581,72.1820372 68.513154,71.2550585 67.4989012,69.4975069 C67.108226,68.8152506 66.7325768,68.0069252 66.3043367,67.0836544 C65.5229864,65.3928453 64.5466741,63.2904576 62.9310069,60.8432339 C61.8453807,59.2043355 60.4667481,58.1624115 58.9866902,57.532066 C54.9976713,55.8153014 50.3020563,57.0722845 48.8366487,57.5431897 L48.8366487,57.1538587 C50.4068624,56.6644139 54.7948207,55.5557474 58.6936838,57.00925 C60.3953747,57.6433034 62.0031533,58.7668016 63.2427957,60.6430065 C64.8768697,63.1087698 65.8573142,65.2259891 66.6461775,66.927922 C67.0894435,67.884564 67.4688492,68.7040132 67.8670374,69.3788537 C68.8211864,71.0066282 69.8692477,71.8112458 72.1231429,71.7593349 C75.3315627,71.6851767 76.7511411,68.058836 78.25787,64.2174363 C79.2792602,61.6107722 80.3198085,58.9484894 81.9914475,57.443076 C82.8779796,56.6458743 83.9410669,56.1712612 85.2746215,56.2083404 C89.3244956,56.3158699 91.439025,60.8988526 93.4866888,65.3335186 C94.1850207,66.838932 94.8611892,68.3106034 95.6012182,69.5679573 C96.7736193,71.5776471 98.0883915,73.0348576 99.8310282,73.2054217 C102.80617,73.4946391 103.752806,70.8620196 104.756165,68.0699597 C105.379367,66.3309477 106.017971,64.5585645 107.17497,63.4276505 C107.911243,62.7008992 108.861635,62.2411177 110.157625,62.2225782 L110.165138,62.5933696 Z" id="Fill-5" fill="#DFD9FF" opacity="0.30031622"></path>
                                </g>
                            </g>
                            <g id="Group-22" transform="translate(516.418083, 77.806962)">
                                <g id="Rectangle-Copy-20">
                                    <use fill="black" fill-opacity="1" filter="url(#filter-55)" xlink:href="#path-54"></use>
                                    <use fill="#FFFFFF" fill-rule="evenodd" xlink:href="#path-54"></use>
                                </g>
                            </g>
                            <g id="Group-33" transform="translate(539.268440, 98.402923)">
                                <polyline id="Path-19" stroke="#CD9B27" stroke-width="1.72043011" points="27.5187103 30.1273831 6.87967757 18.3101768 27.5187103 5.64888433"></polyline>
                                <ellipse id="Oval" fill="#FFC84A" cx="6.38827203" cy="18.3588741" rx="6.38827203" ry="6.11962469"></ellipse>
                                <ellipse id="Oval-Copy-3" fill="#FFC84A" cx="27.0273047" cy="6.11962469" rx="6.38827203" ry="6.11962469"></ellipse>
                                <ellipse id="Oval-Copy-5" fill="#FFC84A" cx="27.0273047" cy="30.5981234" rx="6.38827203" ry="6.11962469"></ellipse>
                            </g>
                        </g>
                    </g>
                </g>
            </g>
        </g>
    </g>
</svg>